<?xml version="1.0" encoding="UTF-8"?>
<!DOCTYPE svg PUBLIC "-//W3C//DTD SVG 1.1//EN" "http://www.w3.org/Graphics/SVG/1.1/DTD/svg11.dtd">
<svg xmlns="http://www.w3.org/2000/svg" version="1.1" width="826px" height="727px" style="shape-rendering:geometricPrecision; text-rendering:geometricPrecision; image-rendering:optimizeQuality; fill-rule:evenodd; clip-rule:evenodd" xmlns:xlink="http://www.w3.org/1999/xlink">
<g><path style="opacity:1" fill="#a5c6d3" d="M 291.5,12.5 C 281.829,11.1996 272.162,11.1996 262.5,12.5C 263.263,11.7321 264.263,11.2321 265.5,11C 269.167,10.8333 272.833,10.6667 276.5,10.5C 281.767,10.2871 286.767,10.9538 291.5,12.5 Z"/></g>
<g><path style="opacity:1" fill="#0d5b72" d="M 291.5,12.5 C 326.473,18.9705 349.473,39.1372 360.5,73C 398.495,73.3633 424.995,90.8633 440,125.5C 441.74,130.035 442.906,134.702 443.5,139.5C 444.731,149.829 444.731,160.163 443.5,170.5C 442.964,175.31 441.797,179.977 440,184.5C 437.66,189.855 434.826,194.855 431.5,199.5C 431.225,197.158 430.392,197.158 429,199.5C 428.83,308.361 428.33,417.194 427.5,526C 428.425,531.116 428.758,536.283 428.5,541.5C 428.219,553.378 425.052,564.378 419,574.5C 417.989,573.663 416.822,573.33 415.5,573.5C 415.008,577.29 415.841,577.956 418,575.5C 418.464,576.094 418.631,576.761 418.5,577.5C 414.299,584.198 408.633,589.364 401.5,593C 395.483,596.006 389.149,598.006 382.5,599C 314.5,599.667 246.5,599.667 178.5,599C 160.344,596.184 146.511,587.017 137,571.5C 134.474,567.086 132.641,562.42 131.5,557.5C 131.5,556.167 131.5,554.833 131.5,553.5C 123.156,553.388 114.822,553.055 106.5,552.5C 73.0695,546.168 45.9029,529.834 25,503.5C 18.8336,493.814 14.3336,483.481 11.5,472.5C 11.5,470.833 11.5,469.167 11.5,467.5C 12.0732,463.926 11.9065,460.26 11,456.5C 10.8327,412.665 10.3327,368.998 9.5,325.5C 9.5,324.5 9.5,323.5 9.5,322.5C 15.1563,290.514 33.4896,269.848 64.5,260.5C 86.4368,258.634 108.437,257.967 130.5,258.5C 130.828,247.321 130.495,236.321 129.5,225.5C 111.385,212.289 100.051,194.622 95.5,172.5C 94.1667,160.167 94.1667,147.833 95.5,135.5C 105.794,97.3795 130.461,74.5462 169.5,67C 177.746,66.1851 185.912,66.3517 194,67.5C 205.483,41.0221 224.983,23.1887 252.5,14C 255.793,13.1744 259.126,12.6744 262.5,12.5C 272.162,11.1996 281.829,11.1996 291.5,12.5 Z M 416.5,139.5 C 418.71,148.75 419.044,158.083 417.5,167.5C 412.015,186.609 399.682,199.109 380.5,205C 361.766,209.523 345.433,205.189 331.5,192C 328.833,191.333 326.167,191.333 323.5,192C 322.058,192.377 321.058,193.21 320.5,194.5C 315.886,197.117 311.553,200.117 307.5,203.5C 284.108,214.467 263.108,210.967 244.5,193C 239.657,190.165 234.657,189.832 229.5,192C 203.793,218.768 175.126,222.434 143.5,203C 121.585,184.803 114.751,161.97 123,134.5C 132.57,110.593 150.07,96.7593 175.5,93C 187.55,93.1039 199.55,93.7706 211.5,95C 213.002,94.4169 214.335,93.5836 215.5,92.5C 218.296,85.6139 220.796,78.6139 223,71.5C 240.162,40.6755 265.662,30.5089 299.5,41C 322.169,51.1295 335.002,68.6295 338,93.5C 340.554,98.3829 344.554,101.383 350,102.5C 374.798,96.5589 394.798,103.892 410,124.5C 412.464,129.401 414.631,134.401 416.5,139.5 Z M 402.5,223.5 C 403.497,242.993 403.83,262.66 403.5,282.5C 321.332,282.167 239.332,282.501 157.5,283.5C 156.833,283.167 156.167,282.833 155.5,282.5C 155.167,267.485 155.501,252.485 156.5,237.5C 159.708,238.802 163.041,239.469 166.5,239.5C 171.233,241.046 176.233,241.713 181.5,241.5C 185.349,241.499 189.016,241.165 192.5,240.5C 209.293,238.241 224.293,231.908 237.5,221.5C 267.603,240.928 297.603,240.928 327.5,221.5C 352.221,236.649 377.221,237.315 402.5,223.5 Z M 82.5,315.5 C 80.6916,315.491 79.0249,315.991 77.5,317C 74.3333,320.167 71.1667,323.333 68,326.5C 65.7132,329.072 64.5465,332.072 64.5,335.5C 63.6909,337.292 63.1909,339.292 63,341.5C 62.3333,375.167 62.3333,408.833 63,442.5C 63.4215,446.872 64.0881,451.205 65,455.5C 65.3736,457.491 66.207,459.158 67.5,460.5C 76.0386,480.28 91.0386,491.614 112.5,494.5C 117.975,495.489 123.642,495.822 129.5,495.5C 129.5,506.5 129.5,517.5 129.5,528.5C 124.146,528.431 118.813,528.098 113.5,527.5C 85.1206,522.902 62.2873,509.235 45,486.5C 41.6697,480.646 38.8364,474.646 36.5,468.5C 35.9645,464.181 35.4645,459.848 35,455.5C 34.3333,413.167 34.3333,370.833 35,328.5C 35.5022,325.487 36.0022,322.487 36.5,319.5C 42.3572,301.642 54.3572,290.309 72.5,285.5C 75.1267,284.895 77.7934,284.395 80.5,284C 96.8299,283.5 113.163,283.333 129.5,283.5C 129.5,293.5 129.5,303.5 129.5,313.5C 114.83,313.333 100.163,313.5 85.5,314C 84.2625,314.232 83.2625,314.732 82.5,315.5 Z M 238.5,333.5 C 244.83,337.854 246.997,343.854 245,351.5C 240.273,360.965 233.106,363.465 223.5,359C 214.028,350.076 214.361,341.576 224.5,333.5C 229.167,332.167 233.833,332.167 238.5,333.5 Z M 94.5,339.5 C 106.167,339.5 117.833,339.5 129.5,339.5C 129.5,383.167 129.5,426.833 129.5,470.5C 119.19,471.053 109.523,468.887 100.5,464C 96.123,459.957 92.9564,455.124 91,449.5C 89.3605,414.881 89.0272,380.214 90,345.5C 90.5985,342.746 92.0985,340.746 94.5,339.5 Z M 339.5,362.5 C 347.086,366.868 350.086,373.535 348.5,382.5C 347.326,383.514 346.66,384.847 346.5,386.5C 342.058,390.715 336.725,392.715 330.5,392.5C 320.306,388.444 316.806,381.11 320,370.5C 321.331,368.004 323.164,366.004 325.5,364.5C 329.933,362.699 334.6,362.033 339.5,362.5 Z M 245.5,455.5 C 245.041,450.485 246.041,445.819 248.5,441.5C 257.657,435.26 265.49,436.593 272,445.5C 275.193,456.783 271.026,463.45 259.5,465.5C 252.885,464.884 248.218,461.55 245.5,455.5 Z M 339.5,494.5 C 341.002,498.342 341.668,502.342 341.5,506.5C 339.192,510.808 335.858,514.142 331.5,516.5C 322.765,517.711 316.765,514.378 313.5,506.5C 312.917,499.573 315.25,493.906 320.5,489.5C 327.978,487.053 334.311,488.72 339.5,494.5 Z"/></g>
<g><path style="opacity:1" fill="#7499aa" d="M 635.5,29.5 C 600.149,29.2068 564.816,29.5402 529.5,30.5C 530.952,29.6981 532.618,29.1981 534.5,29C 568.336,28.1691 602.002,28.3358 635.5,29.5 Z"/></g>
<g><path style="opacity:1" fill="#0c5b72" d="M 635.5,29.5 C 638.516,29.8406 641.182,31.0073 643.5,33C 645.141,34.129 646.141,35.629 646.5,37.5C 646.892,39.1789 647.392,40.8455 648,42.5C 648.168,70.6697 648.668,98.6697 649.5,126.5C 657.507,126.334 665.507,126.5 673.5,127C 676.539,128.031 679.039,129.865 681,132.5C 682.576,138.388 682.909,144.388 682,150.5C 680.264,153.739 677.764,156.073 674.5,157.5C 672.379,157.325 670.379,157.659 668.5,158.5C 644.167,158.5 619.833,158.5 595.5,158.5C 594.5,158.5 593.5,158.5 592.5,158.5C 587.519,157.017 584.353,153.684 583,148.5C 580.922,139.254 583.756,132.087 591.5,127C 599.248,126.412 607.081,125.912 615,125.5C 615.5,104.503 615.667,83.5026 615.5,62.5C 589.457,62.0461 563.457,62.5461 537.5,64C 526.178,67.4882 519.178,74.9882 516.5,86.5C 515.502,109.661 515.169,132.994 515.5,156.5C 518.167,156.5 520.833,156.5 523.5,156.5C 532.29,157.203 536.29,162.037 535.5,171C 535.093,178.741 531.093,183.408 523.5,185C 506.833,185.667 490.167,185.667 473.5,185C 466.606,182.602 463.606,177.769 464.5,170.5C 464.173,160.827 468.839,156.161 478.5,156.5C 480.5,156.5 482.5,156.5 484.5,156.5C 484.5,131.167 484.5,105.833 484.5,80.5C 488.964,54.3687 503.964,37.702 529.5,30.5C 564.816,29.5402 600.149,29.2068 635.5,29.5 Z"/></g>
<g><path style="opacity:1" fill="#709baa" d="M 646.5,37.5 C 647.966,38.347 648.8,39.6803 649,41.5C 649.5,69.8314 649.667,98.1647 649.5,126.5C 648.668,98.6697 648.168,70.6697 648,42.5C 647.392,40.8455 646.892,39.1789 646.5,37.5 Z"/></g>
<g><path style="opacity:1" fill="#91b9c5" d="M 516.5,86.5 C 516.5,109.5 516.5,132.5 516.5,155.5C 519.059,155.198 521.393,155.532 523.5,156.5C 520.833,156.5 518.167,156.5 515.5,156.5C 515.169,132.994 515.502,109.661 516.5,86.5 Z"/></g>
<g><path style="opacity:1" fill="#9bbdcb" d="M 484.5,80.5 C 484.5,105.833 484.5,131.167 484.5,156.5C 482.5,156.5 480.5,156.5 478.5,156.5C 479.919,155.549 481.585,155.216 483.5,155.5C 483.169,130.328 483.502,105.328 484.5,80.5 Z"/></g>
<g><path style="opacity:1" fill="#a3c3d1" d="M 443.5,139.5 C 446.167,149.833 446.167,160.167 443.5,170.5C 444.731,160.163 444.731,149.829 443.5,139.5 Z"/></g>
<g><path style="opacity:1" fill="#78a2b1" d="M 416.5,139.5 C 418.13,141.026 418.963,143.026 419,145.5C 419.667,151.833 419.667,158.167 419,164.5C 418.768,165.737 418.268,166.737 417.5,167.5C 419.044,158.083 418.71,148.75 416.5,139.5 Z"/></g>
<g><path style="opacity:1" fill="#e2bb9f" d="M 592.5,158.5 C 593.5,158.5 594.5,158.5 595.5,158.5C 596.141,168.889 595.474,178.889 593.5,188.5C 595.15,178.32 594.816,168.32 592.5,158.5 Z"/></g>
<g><path style="opacity:0.273" fill="#dbd1c5" d="M 674.5,157.5 C 673.432,158.434 672.099,158.768 670.5,158.5C 670.5,168.5 670.5,178.5 670.5,188.5C 668.526,178.889 667.859,168.889 668.5,158.5C 670.379,157.659 672.379,157.325 674.5,157.5 Z"/></g>
<g><path style="opacity:1" fill="#92b5c2" d="M 95.5,135.5 C 94.1667,147.833 94.1667,160.167 95.5,172.5C 91.5,160.167 91.5,147.833 95.5,135.5 Z"/></g>
<g><path style="opacity:1" fill="#e9b691" d="M 673.5,189.5 C 677.797,190.655 681.797,192.321 685.5,194.5C 680.952,193.885 676.952,192.219 673.5,189.5 Z"/></g>
<g><path style="opacity:1" fill="#eab086" d="M 588.5,190.5 C 587.942,191.79 586.942,192.623 585.5,193C 578.905,195.468 572.239,197.635 565.5,199.5C 572.854,195.933 580.521,192.933 588.5,190.5 Z"/></g>
<g><path style="opacity:1" fill="#86aab9" d="M 320.5,194.5 C 316.97,198.703 312.636,201.703 307.5,203.5C 311.553,200.117 315.886,197.117 320.5,194.5 Z"/></g>
<g><path style="opacity:1" fill="#e2cbb7" d="M 565.5,199.5 C 563.208,201.267 560.542,202.267 557.5,202.5C 559.792,200.733 562.458,199.733 565.5,199.5 Z"/></g>
<g><path style="opacity:1" fill="#e5c1a4" d="M 698.5,199.5 C 701.542,199.733 704.208,200.733 706.5,202.5C 703.458,202.267 700.792,201.267 698.5,199.5 Z"/></g>
<g><path style="opacity:1" fill="#f87812" d="M 595.5,158.5 C 619.833,158.5 644.167,158.5 668.5,158.5C 667.859,168.889 668.526,178.889 670.5,188.5C 671.609,188.557 672.609,188.89 673.5,189.5C 676.952,192.219 680.952,193.885 685.5,194.5C 690.223,195.37 694.556,197.036 698.5,199.5C 700.792,201.267 703.458,202.267 706.5,202.5C 720.126,207.822 733.793,213.155 747.5,218.5C 752.508,222.162 758.174,224.496 764.5,225.5C 775.005,227.737 782.338,233.737 786.5,243.5C 787.778,246.731 787.778,249.564 786.5,252C 683.097,252.831 579.763,252.664 476.5,251.5C 476.5,250.5 476.5,249.5 476.5,248.5C 478.22,239.937 482.887,233.437 490.5,229C 512.865,220.147 535.198,211.314 557.5,202.5C 560.542,202.267 563.208,201.267 565.5,199.5C 572.239,197.635 578.905,195.468 585.5,193C 586.942,192.623 587.942,191.79 588.5,190.5C 590.05,189.559 591.716,188.893 593.5,188.5C 595.474,178.889 596.141,168.889 595.5,158.5 Z"/></g>
<g><path style="opacity:1" fill="#e9b690" d="M 747.5,218.5 C 753.485,220.267 759.152,222.6 764.5,225.5C 758.174,224.496 752.508,222.162 747.5,218.5 Z"/></g>
<g><path style="opacity:0.959" fill="#a7c7d5" d="M 166.5,239.5 C 175.138,240.34 183.805,240.673 192.5,240.5C 189.016,241.165 185.349,241.499 181.5,241.5C 176.233,241.713 171.233,241.046 166.5,239.5 Z"/></g>
<g><path style="opacity:1" fill="#f3880c" d="M 786.5,243.5 C 788.074,245.102 788.741,247.102 788.5,249.5C 788.5,250.833 788.5,252.167 788.5,253.5C 684.161,254.164 580.161,253.498 476.5,251.5C 579.763,252.664 683.097,252.831 786.5,252C 787.778,249.564 787.778,246.731 786.5,243.5 Z"/></g>
<g><path style="opacity:1" fill="#a67f2d" d="M 476.5,248.5 C 476.5,249.5 476.5,250.5 476.5,251.5C 580.161,253.498 684.161,254.164 788.5,253.5C 788.5,252.167 788.5,250.833 788.5,249.5C 789.451,250.919 789.784,252.585 789.5,254.5C 684.833,254.5 580.167,254.5 475.5,254.5C 475.205,252.265 475.539,250.265 476.5,248.5 Z"/></g>
<g><path style="opacity:1" fill="#9cc3cf" d="M 129.5,225.5 C 130.495,236.321 130.828,247.321 130.5,258.5C 108.437,257.967 86.4368,258.634 64.5,260.5C 67.2578,259.239 70.2578,258.406 73.5,258C 92.1637,257.5 110.83,257.333 129.5,257.5C 129.5,246.833 129.5,236.167 129.5,225.5 Z"/></g>
<g><path style="opacity:1" fill="#3d5969" d="M 475.5,254.5 C 580.167,254.5 684.833,254.5 789.5,254.5C 789.5,261.833 789.5,269.167 789.5,276.5C 789.167,276.5 788.833,276.5 788.5,276.5C 684.167,276.5 579.833,276.5 475.5,276.5C 475.5,269.167 475.5,261.833 475.5,254.5 Z"/></g>
<g><path style="opacity:1" fill="#04586f" d="M 788.5,256.5 C 788.5,262.833 788.5,269.167 788.5,275.5C 684.5,275.5 580.5,275.5 476.5,275.5C 476.5,272.167 476.5,268.833 476.5,265.5C 477.477,262.713 477.81,259.713 477.5,256.5C 581.167,256.5 684.833,256.5 788.5,256.5 Z"/></g>
<g><path style="opacity:1" fill="#074d7b" d="M 788.5,256.5 C 684.833,256.5 581.167,256.5 477.5,256.5C 477.81,259.713 477.477,262.713 476.5,265.5C 476.5,262.167 476.5,258.833 476.5,255.5C 580.668,255.167 684.668,255.501 788.5,256.5 Z"/></g>
<g><path style="opacity:1" fill="#f87810" d="M 788.5,277.5 C 788.667,362.167 788.5,446.834 788,531.5C 785.633,535.943 783.799,540.61 782.5,545.5C 775.524,555.994 766.191,563.661 754.5,568.5C 754.167,568.5 753.833,568.5 753.5,568.5C 750.215,568.928 747.215,569.928 744.5,571.5C 739.139,572.099 733.806,572.933 728.5,574C 664.167,574.667 599.833,574.667 535.5,574C 527.239,573.116 519.239,571.282 511.5,568.5C 511.167,568.5 510.833,568.5 510.5,568.5C 499.268,563.461 489.768,556.128 482,546.5C 479.676,543.52 478.176,540.187 477.5,536.5C 476.513,450.185 476.18,363.851 476.5,277.5C 580.5,277.5 684.5,277.5 788.5,277.5 Z"/></g>
<g><path style="opacity:1" fill="#e99e83" d="M 788.5,276.5 C 788.833,276.5 789.167,276.5 789.5,276.5C 789.667,361.834 789.5,447.167 789,532.5C 787.857,537.453 785.69,541.786 782.5,545.5C 783.799,540.61 785.633,535.943 788,531.5C 788.5,446.834 788.667,362.167 788.5,277.5C 788.5,277.167 788.5,276.833 788.5,276.5 Z"/></g>
<g><path style="opacity:0.518" fill="#d3e4e3" d="M 402.5,223.5 C 402.56,222.957 402.893,222.624 403.5,222.5C 404.5,242.822 404.833,263.156 404.5,283.5C 322.167,283.5 239.833,283.5 157.5,283.5C 239.332,282.501 321.332,282.167 403.5,282.5C 403.83,262.66 403.497,242.993 402.5,223.5 Z"/></g>
<g><path style="opacity:1" fill="#c0ad59" d="M 155.5,282.5 C 156.167,282.833 156.833,283.167 157.5,283.5C 239.833,283.5 322.167,283.5 404.5,283.5C 404.833,372.002 404.499,460.335 403.5,548.5C 403.833,460.332 403.499,372.332 402.5,284.5C 320.5,284.5 238.5,284.5 156.5,284.5C 155.501,372.332 155.167,460.332 155.5,548.5C 154.167,459.833 154.167,371.167 155.5,282.5 Z M 238.5,333.5 C 244.83,337.854 246.997,343.854 245,351.5C 240.273,360.965 233.106,363.465 223.5,359C 214.028,350.076 214.361,341.576 224.5,333.5C 229.167,332.167 233.833,332.167 238.5,333.5 Z M 339.5,362.5 C 347.086,366.868 350.086,373.535 348.5,382.5C 347.326,383.514 346.66,384.847 346.5,386.5C 342.058,390.715 336.725,392.715 330.5,392.5C 320.306,388.444 316.806,381.11 320,370.5C 321.331,368.004 323.164,366.004 325.5,364.5C 329.933,362.699 334.6,362.033 339.5,362.5 Z M 245.5,455.5 C 245.041,450.485 246.041,445.819 248.5,441.5C 257.657,435.26 265.49,436.593 272,445.5C 275.193,456.783 271.026,463.45 259.5,465.5C 252.885,464.884 248.218,461.55 245.5,455.5 Z M 339.5,494.5 C 341.002,498.342 341.668,502.342 341.5,506.5C 339.192,510.808 335.858,514.142 331.5,516.5C 322.765,517.711 316.765,514.378 313.5,506.5C 312.917,499.573 315.25,493.906 320.5,489.5C 327.978,487.053 334.311,488.72 339.5,494.5 Z"/></g>
<g><path style="opacity:1" fill="#fec20e" d="M 156.5,284.5 C 238.5,284.5 320.5,284.5 402.5,284.5C 402.667,372.501 402.5,460.501 402,548.5C 401.667,550.167 401.333,551.833 401,553.5C 398.644,557.997 396.144,562.33 393.5,566.5C 393.5,567.167 393.167,567.5 392.5,567.5C 387.691,569.567 382.691,571.067 377.5,572C 312.167,572.667 246.833,572.667 181.5,572C 168.45,569.283 160.283,561.45 157,548.5C 156.5,460.501 156.333,372.501 156.5,284.5 Z M 238.5,333.5 C 244.83,337.854 246.997,343.854 245,351.5C 240.273,360.965 233.106,363.465 223.5,359C 214.028,350.076 214.361,341.576 224.5,333.5C 229.167,332.167 233.833,332.167 238.5,333.5 Z M 339.5,362.5 C 347.086,366.868 350.086,373.535 348.5,382.5C 347.326,383.514 346.66,384.847 346.5,386.5C 342.058,390.715 336.725,392.715 330.5,392.5C 320.306,388.444 316.806,381.11 320,370.5C 321.331,368.004 323.164,366.004 325.5,364.5C 329.933,362.699 334.6,362.033 339.5,362.5 Z M 245.5,455.5 C 245.041,450.485 246.041,445.819 248.5,441.5C 257.657,435.26 265.49,436.593 272,445.5C 275.193,456.783 271.026,463.45 259.5,465.5C 252.885,464.884 248.218,461.55 245.5,455.5 Z M 339.5,494.5 C 341.002,498.342 341.668,502.342 341.5,506.5C 339.192,510.808 335.858,514.142 331.5,516.5C 322.765,517.711 316.765,514.378 313.5,506.5C 312.917,499.573 315.25,493.906 320.5,489.5C 327.978,487.053 334.311,488.72 339.5,494.5 Z"/></g>
<g><path style="opacity:1" fill="#f3dd0b" d="M 402.5,284.5 C 403.499,372.332 403.833,460.332 403.5,548.5C 402.762,555.978 399.429,561.978 393.5,566.5C 396.144,562.33 398.644,557.997 401,553.5C 401.333,551.833 401.667,550.167 402,548.5C 402.5,460.501 402.667,372.501 402.5,284.5 Z"/></g>
<g><path style="opacity:1" fill="#81a9b7" d="M 82.5,315.5 C 83.2625,314.732 84.2625,314.232 85.5,314C 100.163,313.5 114.83,313.333 129.5,313.5C 129.5,303.5 129.5,293.5 129.5,283.5C 113.163,283.333 96.8299,283.5 80.5,284C 77.7934,284.395 75.1267,284.895 72.5,285.5C 73.6808,283.933 75.3474,283.099 77.5,283C 95.1635,282.5 112.83,282.333 130.5,282.5C 130.5,293.167 130.5,303.833 130.5,314.5C 114.476,314.245 98.4759,314.578 82.5,315.5 Z"/></g>
<g><path style="opacity:1" fill="#e6dfab" d="M 238.5,333.5 C 233.833,332.167 229.167,332.167 224.5,333.5C 226.462,331.983 228.795,331.316 231.5,331.5C 234.205,331.316 236.538,331.983 238.5,333.5 Z"/></g>
<g><path style="opacity:1" fill="#567e8f" d="M 36.5,319.5 C 36.0022,322.487 35.5022,325.487 35,328.5C 34.3333,370.833 34.3333,413.167 35,455.5C 35.4645,459.848 35.9645,464.181 36.5,468.5C 35.1127,466.123 34.2794,463.457 34,460.5C 33.5,416.168 33.3333,371.835 33.5,327.5C 34.0075,324.569 35.0075,321.902 36.5,319.5 Z"/></g>
<g><path style="opacity:1" fill="#0b4a7f" d="M 645.5,343.5 C 644.724,347.052 643.391,350.386 641.5,353.5C 640.506,363.653 640.172,373.986 640.5,384.5C 639.36,375.336 638.86,366.003 639,356.5C 640.892,351.379 643.058,347.045 645.5,343.5 Z"/></g>
<g><path style="opacity:1" fill="#dd9553" d="M 475.5,276.5 C 579.833,276.5 684.167,276.5 788.5,276.5C 788.5,276.833 788.5,277.167 788.5,277.5C 684.5,277.5 580.5,277.5 476.5,277.5C 476.18,363.851 476.513,450.185 477.5,536.5C 476.732,535.737 476.232,534.737 476,533.5C 475.5,447.834 475.333,362.167 475.5,276.5 Z"/></g>
<g><path style="opacity:1" fill="#e4e2bd" d="M 339.5,362.5 C 334.6,362.033 329.933,362.699 325.5,364.5C 325.577,363.25 326.244,362.417 327.5,362C 331.689,361.188 335.689,361.355 339.5,362.5 Z"/></g>
<g><path style="opacity:1" fill="#f4d277" d="M 339.5,362.5 C 341.5,362.5 343.5,362.5 345.5,362.5C 345.491,364.308 345.991,365.975 347,367.5C 347.333,367.167 347.667,366.833 348,366.5C 348.645,367.646 349.478,368.646 350.5,369.5C 349.886,373.967 349.22,378.3 348.5,382.5C 350.086,373.535 347.086,366.868 339.5,362.5 Z"/></g>
<g><path style="opacity:1" fill="#a0bdcc" d="M 9.5,322.5 C 9.5,323.5 9.5,324.5 9.5,325.5C 9.33334,370.501 9.50001,415.501 10,460.5C 10.1862,463.036 10.6862,465.369 11.5,467.5C 11.5,469.167 11.5,470.833 11.5,472.5C 10.144,469.423 9.31063,466.09 9,462.5C 8.16846,415.665 8.33512,368.998 9.5,322.5 Z"/></g>
<g><path style="opacity:1" fill="#eed782" d="M 346.5,386.5 C 344.143,391.355 340.143,393.688 334.5,393.5C 332.955,393.489 331.622,393.156 330.5,392.5C 336.725,392.715 342.058,390.715 346.5,386.5 Z"/></g>
<g><path style="opacity:1" fill="#052d45" d="M 9.5,325.5 C 10.3327,368.998 10.8327,412.665 11,456.5C 11.9065,460.26 12.0732,463.926 11.5,467.5C 10.6862,465.369 10.1862,463.036 10,460.5C 9.50001,415.501 9.33334,370.501 9.5,325.5 Z"/></g>
<g><path style="opacity:1" fill="#2f4f75" d="M 590.5,349.5 C 586.031,349.914 581.364,349.914 576.5,349.5C 576.357,371.834 586.023,388.334 605.5,399C 611.497,401.488 617.497,403.655 623.5,405.5C 623.167,405.5 622.833,405.5 622.5,405.5C 598.017,401.52 582.517,387.52 576,363.5C 574.782,358.545 574.449,353.545 575,348.5C 580.179,347.551 585.346,347.884 590.5,349.5 Z"/></g>
<g><path style="opacity:1" fill="#085970" d="M 645.5,343.5 C 643.058,347.045 640.892,351.379 639,356.5C 638.86,366.003 639.36,375.336 640.5,384.5C 640.435,384.938 640.601,385.272 641,385.5C 641.513,384.473 642.013,383.473 642.5,382.5C 644.757,371.487 650.424,362.654 659.5,356C 669.016,350.204 679.35,347.371 690.5,347.5C 691.639,373.062 680.639,391.228 657.5,402C 652.216,403.82 646.883,405.32 641.5,406.5C 640.341,417.326 640.174,428.326 641,439.5C 641.41,438.099 641.91,436.766 642.5,435.5C 648.179,420.323 658.846,410.49 674.5,406C 679.767,404.809 685.101,404.309 690.5,404.5C 691.749,426.503 683.082,443.337 664.5,455C 656.982,458.558 649.315,461.391 641.5,463.5C 640.341,473.992 640.175,484.659 641,495.5C 641.513,494.473 642.013,493.473 642.5,492.5C 643.127,488.58 644.793,485.247 647.5,482.5C 648.117,482.611 648.617,482.944 649,483.5C 658.38,468.725 671.88,461.725 689.5,462.5C 689.773,475.848 685.773,487.682 677.5,498C 677.728,498.399 678.062,498.565 678.5,498.5C 674.411,503.925 669.411,508.258 663.5,511.5C 663.265,510.903 662.765,510.57 662,510.5C 655.352,513.996 648.352,516.329 641,517.5C 639.722,526.399 639.055,535.399 639,544.5C 638.535,545.931 637.701,547.097 636.5,548C 632.409,549.227 628.909,548.394 626,545.5C 625.667,536.5 625.333,527.5 625,518.5C 609.589,515.124 596.589,507.457 586,495.5C 582.873,490.717 580.207,485.717 578,480.5C 576.893,474.213 576.393,467.88 576.5,461.5C 580.328,462.498 583.994,462.498 587.5,461.5C 602.972,465.307 614.306,474.307 621.5,488.5C 621.238,489.978 621.571,491.311 622.5,492.5C 623.823,482.341 623.823,472.341 622.5,462.5C 617.749,461.479 613.082,460.145 608.5,458.5C 604.657,454.887 600.323,451.72 595.5,449C 581.223,437.947 575.056,423.447 577,405.5C 593.4,406.2 606.4,413.2 616,426.5C 617.862,430.419 619.529,434.419 621,438.5C 621.464,437.906 621.631,437.239 621.5,436.5C 623.475,426.554 624.142,416.221 623.5,405.5C 617.497,403.655 611.497,401.488 605.5,399C 586.023,388.334 576.357,371.834 576.5,349.5C 581.364,349.914 586.031,349.914 590.5,349.5C 607.222,354.722 618.055,365.722 623,382.5C 623.667,372.5 623.667,362.5 623,352.5C 615.928,339.44 614.595,325.773 619,311.5C 621.435,304.896 625.935,300.562 632.5,298.5C 635.822,299.247 638.655,300.914 641,303.5C 648.188,314.059 650.521,325.726 648,338.5C 647.901,340.653 647.067,342.319 645.5,343.5 Z"/></g>
<g><path style="opacity:1" fill="#a67a2c" d="M 622.5,405.5 C 622.833,405.5 623.167,405.5 623.5,405.5C 624.142,416.221 623.475,426.554 621.5,436.5C 621.5,435.5 621.5,434.5 621.5,433.5C 622.494,424.348 622.827,415.015 622.5,405.5 Z"/></g>
<g><path style="opacity:1" fill="#a07034" d="M 641.5,406.5 C 641.173,416.348 641.506,426.014 642.5,435.5C 641.91,436.766 641.41,438.099 641,439.5C 640.174,428.326 640.341,417.326 641.5,406.5 Z"/></g>
<g><path style="opacity:1" fill="#b2752b" d="M 641.5,353.5 C 641.173,363.348 641.506,373.014 642.5,382.5C 642.013,383.473 641.513,384.473 641,385.5C 640.601,385.272 640.435,384.938 640.5,384.5C 640.172,373.986 640.506,363.653 641.5,353.5 Z"/></g>
<g><path style="opacity:1" fill="#2d5175" d="M 621.5,433.5 C 621.5,434.5 621.5,435.5 621.5,436.5C 621.631,437.239 621.464,437.906 621,438.5C 619.529,434.419 617.862,430.419 616,426.5C 606.4,413.2 593.4,406.2 577,405.5C 575.056,423.447 581.223,437.947 595.5,449C 600.323,451.72 604.657,454.887 608.5,458.5C 591.486,451.65 580.653,439.316 576,421.5C 574.738,416.213 574.404,410.88 575,405.5C 596.752,404.459 612.252,413.792 621.5,433.5 Z"/></g>
<g><path style="opacity:1" fill="#92b6c3" d="M 64.5,335.5 C 64.5,336.5 64.5,337.5 64.5,338.5C 64.3333,375.502 64.5,412.502 65,449.5C 65.662,451.813 66.162,454.146 66.5,456.5C 67.2341,457.708 67.5674,459.041 67.5,460.5C 66.207,459.158 65.3736,457.491 65,455.5C 64.0881,451.205 63.4215,446.872 63,442.5C 62.3333,408.833 62.3333,375.167 63,341.5C 63.1909,339.292 63.6909,337.292 64.5,335.5 Z"/></g>
<g><path style="opacity:1" fill="#053d55" d="M 33.5,327.5 C 33.3333,371.835 33.5,416.168 34,460.5C 34.2794,463.457 35.1127,466.123 36.5,468.5C 36.6567,469.873 36.49,471.207 36,472.5C 34.4219,469.343 33.4219,466.009 33,462.5C 32.1685,417.331 32.3352,372.331 33.5,327.5 Z"/></g>
<g><path style="opacity:1" fill="#446e80" d="M 431.5,199.5 C 430.671,316.793 430.171,434.127 430,551.5C 429.108,557.4 427.442,563.067 425,568.5C 423.357,571.961 421.19,574.961 418.5,577.5C 418.631,576.761 418.464,576.094 418,575.5C 415.841,577.956 415.008,577.29 415.5,573.5C 416.822,573.33 417.989,573.663 419,574.5C 425.052,564.378 428.219,553.378 428.5,541.5C 429.333,428.001 429.833,314.334 430,200.5C 430.383,199.944 430.883,199.611 431.5,199.5 Z"/></g>
<g><path style="opacity:1" fill="#062f46" d="M 64.5,338.5 C 65.3325,373.664 65.8325,408.998 66,444.5C 66.4069,447.682 66.9069,450.849 67.5,454C 67.472,455.07 67.1386,455.903 66.5,456.5C 66.162,454.146 65.662,451.813 65,449.5C 64.5,412.502 64.3333,375.502 64.5,338.5 Z"/></g>
<g><path style="opacity:1" fill="#e2e4c8" d="M 248.5,441.5 C 246.041,445.819 245.041,450.485 245.5,455.5C 244.362,452.696 244.195,449.696 245,446.5C 245.697,444.416 246.864,442.749 248.5,441.5 Z"/></g>
<g><path style="opacity:1" fill="#8cbbc7" d="M 94.5,339.5 C 106.322,338.505 118.322,338.172 130.5,338.5C 130.832,382.67 130.499,426.67 129.5,470.5C 129.5,426.833 129.5,383.167 129.5,339.5C 117.833,339.5 106.167,339.5 94.5,339.5 Z"/></g>
<g><path style="opacity:1" fill="#063f5c" d="M 431.5,199.5 C 430.883,199.611 430.383,199.944 430,200.5C 429.833,314.334 429.333,428.001 428.5,541.5C 428.758,536.283 428.425,531.116 427.5,526C 428.33,417.194 428.83,308.361 429,199.5C 430.392,197.158 431.225,197.158 431.5,199.5 Z"/></g>
<g><path style="opacity:1" fill="#244e79" d="M 678.5,498.5 C 678.062,498.565 677.728,498.399 677.5,498C 685.773,487.682 689.773,475.848 689.5,462.5C 671.88,461.725 658.38,468.725 649,483.5C 648.617,482.944 648.117,482.611 647.5,482.5C 657.752,467.539 672.085,460.206 690.5,460.5C 691.313,472.247 688.813,483.247 683,493.5C 681.951,495.618 680.451,497.284 678.5,498.5 Z"/></g>
<g><path style="opacity:1" fill="#a97c2b" d="M 622.5,462.5 C 623.823,472.341 623.823,482.341 622.5,492.5C 621.571,491.311 621.238,489.978 621.5,488.5C 622.493,480.016 622.826,471.349 622.5,462.5 Z"/></g>
<g><path style="opacity:1" fill="#a16e35" d="M 641.5,463.5 C 641.173,473.348 641.506,483.014 642.5,492.5C 642.013,493.473 641.513,494.473 641,495.5C 640.175,484.659 640.341,473.992 641.5,463.5 Z"/></g>
<g><path style="opacity:1" fill="#f3d06d" d="M 320.5,489.5 C 315.25,493.906 312.917,499.573 313.5,506.5C 312.596,502.115 312.596,497.781 313.5,493.5C 314.376,492.749 315.376,492.249 316.5,492C 315.167,491.333 315.167,490.667 316.5,490C 317.793,489.51 319.127,489.343 320.5,489.5 Z"/></g>
<g><path style="opacity:1" fill="#e7dda4" d="M 339.5,494.5 C 340.79,495.058 341.623,496.058 342,497.5C 342.805,500.696 342.638,503.696 341.5,506.5C 341.668,502.342 341.002,498.342 339.5,494.5 Z"/></g>
<g><path style="opacity:1" fill="#234f78" d="M 587.5,461.5 C 583.994,462.498 580.328,462.498 576.5,461.5C 576.393,467.88 576.893,474.213 578,480.5C 580.207,485.717 582.873,490.717 586,495.5C 596.589,507.457 609.589,515.124 625,518.5C 625.333,527.5 625.667,536.5 626,545.5C 628.909,548.394 632.409,549.227 636.5,548C 637.701,547.097 638.535,545.931 639,544.5C 639.055,535.399 639.722,526.399 641,517.5C 648.352,516.329 655.352,513.996 662,510.5C 662.765,510.57 663.265,510.903 663.5,511.5C 656.587,515.063 649.254,517.397 641.5,518.5C 641.917,527.915 641.417,537.248 640,546.5C 633.67,552.333 628.17,551.667 623.5,544.5C 623.5,535.833 623.5,527.167 623.5,518.5C 615.767,517.367 608.434,515.033 601.5,511.5C 582.823,499.82 573.823,482.82 574.5,460.5C 578.881,460.372 583.215,460.705 587.5,461.5 Z"/></g>
<g><path style="opacity:1" fill="#98bfcb" d="M 112.5,494.5 C 118.5,494.5 124.5,494.5 130.5,494.5C 130.5,506.167 130.5,517.833 130.5,529.5C 125.821,529.666 121.155,529.499 116.5,529C 115.263,528.768 114.263,528.268 113.5,527.5C 118.813,528.098 124.146,528.431 129.5,528.5C 129.5,517.5 129.5,506.5 129.5,495.5C 123.642,495.822 117.975,495.489 112.5,494.5 Z"/></g>
<g><path style="opacity:1" fill="#ebdb9b" d="M 341.5,506.5 C 341.029,510.503 339.029,513.669 335.5,516C 334.207,516.49 332.873,516.657 331.5,516.5C 335.858,514.142 339.192,510.808 341.5,506.5 Z"/></g>
<g><path style="opacity:1" fill="#db871a" d="M 601.5,511.5 C 608.434,515.033 615.767,517.367 623.5,518.5C 623.5,527.167 623.5,535.833 623.5,544.5C 622.671,536.677 622.171,528.677 622,520.5C 617.172,519.083 612.339,517.583 607.5,516C 604.823,515.186 602.823,513.686 601.5,511.5 Z"/></g>
<g><path style="opacity:1" fill="#94b8c5" d="M 106.5,552.5 C 114.822,553.055 123.156,553.388 131.5,553.5C 131.5,554.833 131.5,556.167 131.5,557.5C 130.596,556.791 130.263,555.791 130.5,554.5C 122.257,554.935 114.257,554.269 106.5,552.5 Z"/></g>
<g><path style="opacity:1" fill="#ebe60e" d="M 156.5,284.5 C 156.333,372.501 156.5,460.501 157,548.5C 160.283,561.45 168.45,569.283 181.5,572C 246.833,572.667 312.167,572.667 377.5,572C 382.691,571.067 387.691,569.567 392.5,567.5C 389.443,570.362 385.776,572.195 381.5,573C 313.5,573.667 245.5,573.667 177.5,573C 165.049,569.385 157.716,561.218 155.5,548.5C 155.167,460.332 155.501,372.332 156.5,284.5 Z"/></g>
<g><path style="opacity:1" fill="#065a6f" d="M 753.5,568.5 C 753.5,586.167 753.5,603.833 753.5,621.5C 741.5,621.5 729.5,621.5 717.5,621.5C 717.5,614.833 717.5,608.167 717.5,601.5C 661.51,599.504 605.177,598.837 548.5,599.5C 548.5,606.833 548.5,614.167 548.5,621.5C 548.5,621.833 548.5,622.167 548.5,622.5C 536.167,622.5 523.833,622.5 511.5,622.5C 511.5,606.167 511.5,589.833 511.5,573.5C 512.594,572.418 513.927,571.752 515.5,571.5C 521.356,573.267 527.356,574.433 533.5,575C 599.5,575.667 665.5,575.667 731.5,575C 736.789,574.78 741.122,573.613 744.5,571.5C 747.215,569.928 750.215,568.928 753.5,568.5 Z M 717.5,601.5 C 716.509,607.979 716.176,614.646 716.5,621.5C 660.5,621.5 604.5,621.5 548.5,621.5C 548.5,614.167 548.5,606.833 548.5,599.5C 605.177,598.837 661.51,599.504 717.5,601.5 Z"/></g>
<g><path style="opacity:1" fill="#0c4288" d="M 511.5,568.5 C 519.239,571.282 527.239,573.116 535.5,574C 599.833,574.667 664.167,574.667 728.5,574C 733.806,572.933 739.139,572.099 744.5,571.5C 741.122,573.613 736.789,574.78 731.5,575C 665.5,575.667 599.5,575.667 533.5,575C 527.356,574.433 521.356,573.267 515.5,571.5C 513.927,571.752 512.594,572.418 511.5,573.5C 511.5,571.833 511.5,570.167 511.5,568.5 Z"/></g>
<g><path style="opacity:1" fill="#8aaeb8" d="M 753.5,568.5 C 753.833,568.5 754.167,568.5 754.5,568.5C 754.5,586.167 754.5,603.833 754.5,621.5C 760.026,621.179 765.36,621.512 770.5,622.5C 764.642,622.822 758.975,622.489 753.5,621.5C 753.5,603.833 753.5,586.167 753.5,568.5 Z"/></g>
<g><path style="opacity:1" fill="#87bcba" d="M 510.5,568.5 C 510.833,568.5 511.167,568.5 511.5,568.5C 511.5,570.167 511.5,571.833 511.5,573.5C 511.5,589.833 511.5,606.167 511.5,622.5C 374.5,622.5 237.5,622.5 100.5,622.5C 236.999,621.5 373.666,621.167 510.5,621.5C 510.5,603.833 510.5,586.167 510.5,568.5 Z"/></g>
<g><path style="opacity:1" fill="#8abfbd" d="M 717.5,601.5 C 717.5,608.167 717.5,614.833 717.5,621.5C 661.336,622.499 605.002,622.832 548.5,622.5C 548.5,622.167 548.5,621.833 548.5,621.5C 604.5,621.5 660.5,621.5 716.5,621.5C 716.176,614.646 716.509,607.979 717.5,601.5 Z"/></g>
<g><path style="opacity:1" fill="#008d70" d="M 717.5,621.5 C 729.5,621.5 741.5,621.5 753.5,621.5C 758.975,622.489 764.642,622.822 770.5,622.5C 778.843,624.499 784.51,629.499 787.5,637.5C 788.986,655.532 788.82,673.532 787,691.5C 783.507,695.993 779.673,700.159 775.5,704C 772.92,705.144 770.253,705.978 767.5,706.5C 543.306,705.83 318.973,705.164 94.5,704.5C 93.1667,704.5 91.8333,704.5 90.5,704.5C 83.9373,701.097 79.7706,695.763 78,688.5C 77.3333,673.5 77.3333,658.5 78,643.5C 81.2245,631.771 88.7245,624.771 100.5,622.5C 237.5,622.5 374.5,622.5 511.5,622.5C 523.833,622.5 536.167,622.5 548.5,622.5C 605.002,622.832 661.336,622.499 717.5,621.5 Z"/></g>
<g><path style="opacity:1" fill="#5daa9a" d="M 787.5,637.5 C 788.268,638.263 788.768,639.263 789,640.5C 789.191,646.083 789.691,651.583 790.5,657C 790.061,667.283 789.561,677.783 789,688.5C 786.833,698.667 780.667,704.833 770.5,707C 545.5,707.667 320.5,707.667 95.5,707C 93.5087,706.626 91.842,705.793 90.5,704.5C 91.8333,704.5 93.1667,704.5 94.5,704.5C 94.9175,705.222 95.5842,705.722 96.5,706C 320.166,706.5 543.833,706.667 767.5,706.5C 770.253,705.978 772.92,705.144 775.5,704C 779.673,700.159 783.507,695.993 787,691.5C 788.82,673.532 788.986,655.532 787.5,637.5 Z"/></g>
<g><path style="opacity:1" fill="#077c5e" d="M 94.5,704.5 C 318.973,705.164 543.306,705.83 767.5,706.5C 543.833,706.667 320.166,706.5 96.5,706C 95.5842,705.722 94.9175,705.222 94.5,704.5 Z"/></g>
</svg>
