<?xml version="1.0" encoding="UTF-8"?>
<!DOCTYPE svg PUBLIC "-//W3C//DTD SVG 1.1//EN" "http://www.w3.org/Graphics/SVG/1.1/DTD/svg11.dtd">
<svg xmlns="http://www.w3.org/2000/svg" version="1.1" width="283px" height="419px" style="shape-rendering:geometricPrecision; text-rendering:geometricPrecision; image-rendering:optimizeQuality; fill-rule:evenodd; clip-rule:evenodd" xmlns:xlink="http://www.w3.org/1999/xlink">
<g><path style="opacity:1" fill="#16444c" d="M 150.5,76.5 C 149.527,78.9479 149.194,81.6146 149.5,84.5C 152.786,85.2071 156.119,85.5405 159.5,85.5C 192.132,91.7533 219.965,106.753 243,130.5C 260.67,152.648 270.837,177.981 273.5,206.5C 273,211.865 270.333,215.532 265.5,217.5C 263.084,219.295 263.084,221.295 265.5,223.5C 271.157,248.874 268.324,273.208 257,296.5C 254.087,299.373 250.587,300.706 246.5,300.5C 245.499,328.332 234.499,351.165 213.5,369C 206.138,371.073 199.805,369.24 194.5,363.5C 182.788,384.38 166.788,401.213 146.5,414C 141.314,416.226 136.314,415.893 131.5,413C 112.194,400.029 96.6938,383.529 85,363.5C 79.0691,369.884 72.2358,371.384 64.5,368C 44.463,350.096 34.1297,327.596 33.5,300.5C 28.1753,300.893 24.0086,298.893 21,294.5C 10.9193,270.4 8.75261,245.567 14.5,220C 14.1667,219.167 13.8333,218.333 13.5,217.5C 8.45942,214.925 6.12608,210.758 6.5,205C 12.1658,151.012 40.1658,114.012 90.5,94C 101.017,89.1047 112.017,85.938 123.5,84.5C 124.833,84.5 126.167,84.5 127.5,84.5C 127.5,81.5 127.5,78.5 127.5,75.5C 131.692,47.9161 145.692,27.0827 169.5,13C 178.252,8.46109 184.752,10.6278 189,19.5C 190.011,23.9822 188.844,27.8155 185.5,31C 166.15,40.1917 154.483,55.3583 150.5,76.5 Z M 39.5,197.5 C 36.8333,197.5 34.1667,197.5 31.5,197.5C 31.5,196.167 31.5,194.833 31.5,193.5C 38.11,160.94 56.2766,137.273 86,122.5C 86.4839,137.605 90.3172,151.771 97.5,165C 83.106,184.37 63.7727,195.204 39.5,197.5 Z M 248.5,197.5 C 243.819,197.331 239.152,196.998 234.5,196.5C 232.236,195.781 229.903,195.448 227.5,195.5C 225.786,194.262 223.786,193.595 221.5,193.5C 205.623,188.814 192.789,179.814 183,166.5C 185.297,159.61 187.63,152.61 190,145.5C 191.896,137.958 192.896,130.291 193,122.5C 224.224,137.916 242.724,162.916 248.5,197.5 Z M 111.5,186.5 C 118.859,195.402 127.193,203.235 136.5,210C 140.452,210.912 144.119,210.245 147.5,208C 154.698,201.136 161.532,193.97 168,186.5C 173.167,191.667 178.333,196.833 183.5,202C 175.879,224.632 161.879,242.298 141.5,255C 138.983,255.257 136.65,254.59 134.5,253C 116.298,240.302 103.631,223.469 96.5,202.5C 101.522,197.146 106.522,191.813 111.5,186.5 Z M 35.5,228.5 C 36.531,226.039 37.1977,223.373 37.5,220.5C 41.0419,220.813 44.3752,220.479 47.5,219.5C 57.2325,218.812 66.5658,216.479 75.5,212.5C 78.9826,222.962 83.6493,232.796 89.5,242C 76.637,259.445 59.637,270.945 38.5,276.5C 33.5237,260.758 32.5237,244.758 35.5,228.5 Z M 204.5,212.5 C 216.33,217.401 228.663,220.401 241.5,221.5C 247.047,239.968 246.714,258.301 240.5,276.5C 219.533,270.672 202.533,259.172 189.5,242C 196.111,233.01 201.111,223.177 204.5,212.5 Z M 172.5,259.5 C 176.695,263.532 180.361,268.032 183.5,273C 177.71,287.9 168.71,300.567 156.5,311C 151,315.167 145.5,319.333 140,323.5C 126.029,314.194 114.029,302.861 104,289.5C 100.948,284.063 98.4476,278.397 96.5,272.5C 99.4815,268.02 102.982,264.02 107,260.5C 116.281,267.77 126.114,274.27 136.5,280C 138.5,280.667 140.5,280.667 142.5,280C 153.747,274.885 163.747,268.052 172.5,259.5 Z M 222.5,294.5 C 223.423,298.064 223.756,301.731 223.5,305.5C 222.057,320.2 216.391,332.867 206.5,343.5C 196.73,336.294 189.063,327.294 183.5,316.5C 191.513,307.145 198.013,296.812 203,285.5C 208.937,289.718 215.437,292.718 222.5,294.5 Z M 74.5,286.5 C 75.675,286.281 76.675,286.614 77.5,287.5C 82.5776,297.988 88.9109,307.655 96.5,316.5C 90.3,327.2 82.4667,336.534 73,344.5C 60.5865,330.52 55.0865,314.187 56.5,295.5C 62.9899,293.241 68.9899,290.241 74.5,286.5 Z M 113.5,333.5 C 119.804,337.99 126.137,342.49 132.5,347C 135,347.833 137.5,348.667 140,349.5C 142.995,348.724 145.828,347.557 148.5,346C 154.355,341.577 160.355,337.41 166.5,333.5C 168.67,338.483 171.837,342.817 176,346.5C 176.667,347.833 176.667,349.167 176,350.5C 167.509,367.159 155.342,380.492 139.5,390.5C 123.427,379.593 111.093,365.426 102.5,348C 106.791,343.555 110.458,338.722 113.5,333.5 Z"/></g>
<g><path style="opacity:1" fill="#95a3a6" d="M 150.5,76.5 C 150.5,78.8333 150.5,81.1667 150.5,83.5C 153.689,83.8583 156.689,84.525 159.5,85.5C 156.119,85.5405 152.786,85.2071 149.5,84.5C 149.194,81.6146 149.527,78.9479 150.5,76.5 Z"/></g>
<g><path style="opacity:1" fill="#6c7f84" d="M 127.5,75.5 C 127.5,78.5 127.5,81.5 127.5,84.5C 126.167,84.5 124.833,84.5 123.5,84.5C 124.209,83.596 125.209,83.2627 126.5,83.5C 126.194,80.6146 126.527,77.9479 127.5,75.5 Z"/></g>
<g><path style="opacity:1" fill="#6a8287" d="M 221.5,193.5 C 223.786,193.595 225.786,194.262 227.5,195.5C 226.178,195.33 225.011,195.663 224,196.5C 223.302,195.309 222.469,194.309 221.5,193.5 Z"/></g>
<g><path style="opacity:1" fill="#879699" d="M 31.5,193.5 C 31.5,194.833 31.5,196.167 31.5,197.5C 34.1667,197.5 36.8333,197.5 39.5,197.5C 36.7131,198.477 33.7131,198.81 30.5,198.5C 30.2155,196.585 30.5489,194.919 31.5,193.5 Z"/></g>
<g><path style="opacity:1" fill="#849497" d="M 234.5,196.5 C 239.152,196.998 243.819,197.331 248.5,197.5C 243.754,198.789 239.087,198.456 234.5,196.5 Z"/></g>
<g><path style="opacity:1" fill="#587075" d="M 47.5,219.5 C 44.3752,220.479 41.0419,220.813 37.5,220.5C 37.1977,223.373 36.531,226.039 35.5,228.5C 35.7261,225.751 35.3928,223.084 34.5,220.5C 38.7828,219.508 43.1161,219.174 47.5,219.5 Z"/></g>
<g><path style="opacity:1" fill="#809094" d="M 265.5,217.5 C 264.725,219.388 264.725,221.388 265.5,223.5C 263.084,221.295 263.084,219.295 265.5,217.5 Z"/></g>
<g><path style="opacity:1" fill="#8a999c" d="M 222.5,294.5 C 223.787,295.871 224.453,297.705 224.5,300C 224.494,302.033 224.161,303.866 223.5,305.5C 223.756,301.731 223.423,298.064 222.5,294.5 Z"/></g>
<g><path style="opacity:1" fill="#294f56" d="M 166.5,333.5 C 160.355,337.41 154.355,341.577 148.5,346C 145.828,347.557 142.995,348.724 140,349.5C 137.5,348.667 135,347.833 132.5,347C 126.137,342.49 119.804,337.99 113.5,333.5C 114.793,332.355 115.959,332.689 117,334.5C 118,333.5 119,332.5 120,331.5C 122.005,336.17 125.338,337.837 130,336.5C 131.067,337.191 132.234,337.691 133.5,338C 134.13,339.892 135.13,341.559 136.5,343C 137.449,343.617 138.282,343.451 139,342.5C 140.852,344.23 140.686,345.396 138.5,346C 139.025,346.692 139.692,347.192 140.5,347.5C 143.121,345.795 143.788,343.628 142.5,341C 144.841,341.557 147.174,341.39 149.5,340.5C 150,339.5 150.5,338.5 151,337.5C 152.84,338.833 153.34,338.666 152.5,337C 154.594,336.138 155.594,334.972 155.5,333.5C 156.167,334.167 156.833,334.833 157.5,335.5C 158.912,334.194 160.579,333.36 162.5,333C 161.833,332.667 161.167,332.333 160.5,332C 161.833,331.333 161.833,330.667 160.5,330C 161.167,329.333 161.833,329.333 162.5,330C 164.093,330.949 165.426,332.115 166.5,333.5 Z"/></g>
</svg>
